<svg width="119" height="119" viewBox="0 0 119 119" fill="none" xmlns="http://www.w3.org/2000/svg">
<path d="M15.0834 35.3056H29.8334" stroke="white" stroke-width="8.5" stroke-linecap="round" stroke-linejoin="round"/>
<path d="M15.0834 84.4723H44.5834" stroke="white" stroke-width="8.5" stroke-linecap="round" stroke-linejoin="round"/>
<path d="M88.8334 84.4723H103.583" stroke="white" stroke-width="8.5" stroke-linecap="round" stroke-linejoin="round"/>
<path d="M74.0834 35.3056H103.583" stroke="white" stroke-width="8.5" stroke-linecap="round" stroke-linejoin="round"/>
<path d="M29.8334 35.3056C29.8334 30.7238 29.8334 28.433 30.5819 26.6258C31.5799 24.2164 33.4942 22.3021 35.9036 21.3041C37.7108 20.5556 40.0016 20.5556 44.5834 20.5556C49.1651 20.5556 51.4559 20.5556 53.2633 21.3041C55.6724 22.3021 57.587 24.2164 58.5851 26.6258C59.3334 28.433 59.3334 30.7238 59.3334 35.3056C59.3334 39.8873 59.3334 42.1782 58.5851 43.9853C57.587 46.3947 55.6724 48.309 53.2633 49.3071C51.4559 50.0556 49.1651 50.0556 44.5834 50.0556C40.0016 50.0556 37.7108 50.0556 35.9036 49.3071C33.4942 48.309 31.5799 46.3947 30.5819 43.9853C29.8334 42.1782 29.8334 39.8873 29.8334 35.3056Z" stroke="white" stroke-width="8.5"/>
<path d="M59.3334 84.4723C59.3334 79.8904 59.3334 77.5997 60.0817 75.7924C61.0798 73.3832 62.9943 71.4687 65.4035 70.4706C67.2109 69.7223 69.5015 69.7223 74.0834 69.7223C78.6652 69.7223 80.9559 69.7223 82.7633 70.4706C85.1724 71.4687 87.087 73.3832 88.0851 75.7924C88.8334 77.5997 88.8334 79.8904 88.8334 84.4723C88.8334 89.0541 88.8334 91.3448 88.0851 93.1521C87.087 95.5613 85.1724 97.4758 82.7633 98.4739C80.9559 99.2222 78.6652 99.2223 74.0834 99.2223C69.5015 99.2223 67.2109 99.2222 65.4035 98.4739C62.9943 97.4758 61.0798 95.5613 60.0817 93.1521C59.3334 91.3448 59.3334 89.0541 59.3334 84.4723Z" stroke="white" stroke-width="8.5"/>
</svg>
